# xmcd
#
# Track frame offsets: 
#        150
#        14125
#        25125
#        40500
#        55350
#        68312
#        95282
#        116375
#        144957
#        169280
#        187992
#        201232
#        215650
#        232842
#        250630
#        274470
#        296017
#        308700
#
# Disc length: 4293 seconds
#
# Revision: 0
# Processed by: cddbd v1.5.2PL0 Copyright (c) Steve Scherf et al.
# Submitted via: ExactAudioCopyFreeDBPlugin 1.0
#
DISCID=fa10c312
DTITLE=Various Artist - Blues Spirit Vol.2 Slide Guitar Masterworks
DYEAR=1996
DGENRE=Blues
TTITLE0=Rising Sons - Dust My Broom
TTITLE1=Rising Sons - Statesboro Blues
TTITLE2=Delaney and Bonnie - Bigchange Comin'
TTITLE3=Delaney and Bonnie - Comin' Home
TTITLE4=Jess Ed Davis - She's A Pain
TTITLE5=The Dickey Betts Band - Duane's Tune
TTITLE6=The Allman Brothers Band - End Of The Line
TTITLE7=The Allman Brothers Band - Come On In My Kitchen
TTITLE8=Les Dudek - Sad Clown
TTITLE9=Les Dudek - Take The Time
TTITLE10=Fleetwood Mac - Shake Your Moneymaker
TTITLE11=Fleetwood Mac - The Sun Is Shining
TTITLE12=Beck, Bogert and Appice - Black Cat Moan
TTITLE13=Joe Walsh - Up All Night
TTITLE14=David Bromberg - Pine Tree Woman
TTITLE15=Chris Whitley - Big Sky Country
TTITLE16=Dave Mason - Searchin' (For A Feeling)
TTITLE17=Robert Johnson - I Believe I'll Dust My Broom
EXTD=
EXTT0=
EXTT1=
EXTT2=
EXTT3=
EXTT4=
EXTT5=
EXTT6=
EXTT7=
EXTT8=
EXTT9=
EXTT10=
EXTT11=
EXTT12=
EXTT13=
EXTT14=
EXTT15=
EXTT16=
EXTT17=
PLAYORDER=
